<svg width="600" height="487" viewBox="0 0 600 487" fill="none" xmlns="http://www.w3.org/2000/svg">
<path opacity="0.18" d="M568.858 451.742C540.027 479.413 495.233 485.806 453.843 486.694C414.19 487.932 373.135 485.238 334.548 475.611C299.774 466.99 262.983 470.645 226.69 471.053C173.761 471.665 117.152 471.286 73.1319 442.072C30.0907 413.586 7.10229 361.697 2.15116 310.404C1.84446 307.2 1.56696 304.011 1.36249 300.807C-3.45719 231.937 11.8051 164.887 54.7587 110.667C93.7543 61.443 146.771 21.9179 208.711 7.51472C242.069 -0.247571 276.902 -0.699037 311.282 0.524289C348.496 1.82043 386.338 5.67973 421.784 16.8062C470.814 32.1997 521.552 66.7149 535.412 115.328C550.864 169.649 561.57 224.189 579.33 278.438C580.921 283.331 582.528 288.224 584.091 293.147C591.846 317.511 598.623 342.211 599.426 367.536C600.39 397.959 591.642 429.897 568.858 451.742Z" fill="#00A2FE"/>
<path opacity="0.48" d="M568.858 451.742C540.027 479.412 495.233 485.806 453.843 486.694C414.19 487.932 373.135 485.238 334.548 475.611C299.774 466.99 262.983 470.645 226.69 471.053C173.761 471.665 117.152 471.286 73.1319 442.072C30.0907 413.586 7.10229 361.697 2.15116 310.404C1.84446 307.2 1.56696 304.011 1.36249 300.807L584.105 293.132C591.861 317.497 598.638 342.196 599.441 367.522C600.39 397.959 591.642 429.897 568.858 451.742Z" fill="#00A2FE"/>
<path d="M23.0657 348.488C24.3947 354.24 29.9593 357.852 35.1587 360.663C49.6907 368.527 64.9823 374.906 80.23 381.284L185.62 425.309C201.686 432.038 218 438.824 235.175 442.057C252.57 445.334 270.432 444.97 288.133 444.446C364.46 442.48 440.917 440.528 516.761 431.761C526.737 430.611 538.333 428.208 542.554 419.149C546.351 411.037 541.897 401.003 534.769 395.556C527.642 390.11 518.543 388.158 509.751 386.352L454.646 375.022C375.778 358.813 296.911 342.589 217.211 331.434C198.049 328.754 11.6883 299.059 23.0657 348.488Z" fill="url(#paint0_linear_66_214)"/>
<path d="M86.1742 279.035C137.292 287.962 192.441 244.84 236.285 322.972C242.536 335.424 244.333 360.735 244.785 386.28C192.397 371.352 77.0022 333.939 74.9137 332.147C71.2332 329.016 71.2332 316.725 71.3793 305.744C71.4377 301.579 77.937 291.268 86.1742 279.035Z" fill="#1A1A1A"/>
<path d="M88.3066 308.496C93.0678 308.628 108.082 322.317 108.447 339.589C108.768 355.201 104.445 368.716 100.356 370.857L84.7283 372.08L86.5686 368.978C83.2094 364.464 80.6243 352.959 80.3468 339.531C79.9817 322.273 83.5453 308.38 88.3066 308.496Z" fill="#3F3D56"/>
<path d="M88.3066 308.496C93.0678 308.628 108.082 322.317 108.447 339.589C108.768 355.201 104.445 368.716 100.356 370.857L84.7283 372.08L86.5686 368.978C83.2094 364.464 80.6243 352.959 80.3468 339.531C79.9817 322.273 83.5453 308.38 88.3066 308.496Z" fill="url(#paint1_linear_66_214)"/>
<path d="M75.089 340.609C75.4541 357.866 79.6165 371.964 84.3778 372.08C89.1391 372.197 92.7027 358.318 92.3376 341.06C91.9724 323.803 87.8246 309.691 83.0487 309.574C78.2729 309.458 74.7238 323.337 75.089 340.609Z" fill="#3F3D56"/>
<path d="M77.4112 340.696C77.6303 350.89 80.0985 359.264 82.9027 359.337C85.7069 359.41 87.8392 351.182 87.6347 340.958C87.4303 330.735 84.9474 322.39 82.1286 322.317C79.3098 322.244 77.2067 330.473 77.4112 340.696Z" fill="url(#paint2_linear_66_214)"/>
<path d="M79.3975 340.769C79.4997 345.691 80.6827 349.725 82.041 349.755C83.3993 349.784 84.4216 345.822 84.3194 340.9C84.2171 335.978 83.0341 331.944 81.6759 331.9C80.3176 331.856 79.3975 335.832 79.3975 340.769Z" fill="#3F3D56"/>
<path d="M221.52 316.069C229.815 316.288 265.335 341.381 265.992 371.41C266.562 398.6 261.611 420.926 254.439 424.858L215.225 426.795L218.438 421.377C212.596 413.513 208.083 393.474 207.586 370.114C207.017 340.07 213.224 315.851 221.52 316.069Z" fill="#3F3D56"/>
<path d="M221.52 316.069C229.815 316.288 265.335 341.381 265.992 371.41C266.562 398.6 261.611 420.926 254.439 424.858L215.225 426.795L218.438 421.377C212.596 413.513 208.083 393.474 207.586 370.114C207.017 340.07 213.224 315.851 221.52 316.069Z" fill="url(#paint3_linear_66_214)"/>
<path d="M198.502 371.978C199.13 402.037 206.374 426.576 214.67 426.795C222.965 427.013 229.173 402.824 228.53 372.765C227.887 342.706 220.658 318.152 212.377 317.934C204.096 317.715 197.874 341.919 198.502 371.978Z" fill="#3F3D56"/>
<path d="M202.548 372.109C202.913 389.906 207.207 404.455 212.114 404.571C217.021 404.688 220.702 390.372 220.337 372.532C219.971 354.692 215.678 340.186 210.756 340.055C205.834 339.924 202.168 354.327 202.548 372.109Z" fill="url(#paint4_linear_66_214)"/>
<path d="M206.082 372.255C206.257 380.833 208.331 387.852 210.697 387.911C213.063 387.969 214.83 381.066 214.655 372.473C214.48 363.881 212.406 356.876 210.04 356.818C207.674 356.76 205.892 363.663 206.082 372.255Z" fill="#3F3D56"/>
<path d="M466.52 316.069C474.816 316.288 510.335 341.381 510.992 371.41C511.562 398.6 506.538 420.926 499.44 424.858L460.284 426.766L463.497 421.348C457.655 413.484 453.142 393.445 452.645 370.085C452.017 340.07 458.224 315.851 466.52 316.069Z" fill="#3F3D56"/>
<path d="M466.52 316.069C474.816 316.288 510.335 341.381 510.992 371.41C511.562 398.6 506.538 420.926 499.44 424.858L460.284 426.766L463.497 421.348C457.655 413.484 453.142 393.445 452.645 370.085C452.017 340.07 458.224 315.851 466.52 316.069Z" fill="url(#paint5_linear_66_214)"/>
<path d="M443.502 371.978C444.145 402.037 451.374 426.576 459.67 426.795C467.966 427.013 474.173 402.824 473.53 372.765C472.888 342.706 465.658 318.225 457.377 317.934C449.096 317.642 442.874 341.919 443.502 371.978Z" fill="#3F3D56"/>
<path d="M447.548 372.109C447.928 389.906 452.207 404.455 457.114 404.571C462.022 404.688 465.717 390.372 465.337 372.532C464.957 354.692 460.678 340.186 455.756 340.055C450.834 339.924 447.168 354.327 447.548 372.109Z" fill="url(#paint6_linear_66_214)"/>
<path d="M451.082 372.255C451.258 380.833 453.331 387.852 455.698 387.911C458.064 387.969 459.831 381.066 459.655 372.473C459.48 363.881 457.406 356.876 455.04 356.818C452.674 356.76 450.892 363.663 451.082 372.255Z" fill="#3F3D56"/>
<path d="M110.725 310.026C115.925 310.157 137.015 325.55 137.394 344.381C137.745 361.42 134.59 375.459 130.092 377.876L106.724 379.406L108.739 376.012C105.059 371.09 102.254 358.536 101.948 343.885C101.641 325.055 105.526 309.895 110.725 310.026Z" fill="#3F3D56"/>
<path d="M110.725 310.026C115.925 310.157 137.015 325.55 137.394 344.381C137.745 361.42 134.59 375.459 130.092 377.876L106.724 379.406L108.739 376.012C105.059 371.09 102.254 358.536 101.948 343.885C101.641 325.055 105.526 309.895 110.725 310.026Z" fill="url(#paint7_linear_66_214)"/>
<path d="M96.2955 345.051C96.7045 363.896 101.232 379.275 106.431 379.406C111.631 379.537 115.516 364.391 115.121 345.546C114.727 326.701 110.185 311.336 105 311.191C99.8154 311.045 95.9012 326.22 96.2955 345.051Z" fill="#3F3D56"/>
<path d="M98.8368 345.153C99.0705 356.308 101.758 365.425 104.84 365.541C107.921 365.658 110.214 356.643 109.981 345.473C109.747 334.303 107.06 325.215 103.978 325.084C100.896 324.953 98.6032 333.997 98.8368 345.153Z" fill="url(#paint8_linear_66_214)"/>
<path d="M101.057 345.24C101.159 350.614 102.517 355.012 103.978 355.041C105.438 355.07 106.578 350.745 106.475 345.371C106.373 339.997 105.015 335.599 103.554 335.555C102.094 335.512 100.94 339.851 101.057 345.24Z" fill="#3F3D56"/>
<path d="M236.285 323.074C192.47 244.942 137.307 288.122 86.1742 279.137C99.6255 258.995 117.458 233.641 117.867 221.932C118.524 203.087 116.918 177.63 121.913 174.499C126.908 171.368 201.116 115.794 239.309 97.6767C277.501 79.5598 490.428 85.4143 496.898 105.832C503.368 126.25 518.806 231.15 522.749 295.724C525.597 341.832 525.247 345.895 524.794 383.236C524.794 383.236 307.047 392.469 269.541 392.469C267.117 392.469 257.93 390.139 244.785 386.381C244.333 360.837 242.536 335.526 236.285 323.074Z" fill="#00A2FE"/>
<path d="M263.757 104.813C271.44 98.7107 483.549 100.109 489.946 101.769C492.611 102.42 495.027 103.832 496.898 105.832C498.677 109.188 500.12 112.71 501.207 116.347C504.449 127.344 507.005 138.531 508.86 149.843C512.57 172.94 517.433 209.058 520.822 259.199C521.201 265.214 521.566 271.462 521.902 277.899C522.019 283.637 521.786 294.72 518.426 296.365C513.884 298.579 295.48 300.516 285.096 293.03C274.711 285.545 274.375 278.612 272.521 252.005C270.666 225.398 265.218 154.154 262.297 139.182C259.376 124.211 256.119 110.915 263.757 104.813Z" fill="url(#paint9_linear_66_214)"/>
<path d="M263.757 104.813C271.44 98.7107 483.549 100.109 489.946 101.769C492.611 102.42 495.027 103.832 496.898 105.832C498.677 109.188 500.12 112.71 501.207 116.347C504.449 127.344 507.005 138.531 508.86 149.843C512.57 172.94 517.433 209.058 520.822 259.199C521.201 265.214 521.566 271.462 521.902 277.899C522.019 283.637 521.786 294.72 518.426 296.365C515.324 296.844 512.189 297.087 509.05 297.093C506.129 249.748 507.984 236.553 497.965 175.576C490.18 139.838 477.693 142.954 459.889 142.954C463.57 197.858 469.923 243.194 472.669 298.098C406.04 298.681 291.828 297.88 285.096 293.03C274.697 285.545 274.375 278.612 272.521 252.005C270.666 225.398 265.218 154.154 262.297 139.182C259.376 124.211 256.119 110.915 263.757 104.813Z" fill="url(#paint10_linear_66_214)"/>
<path d="M263.757 104.813C271.44 98.7107 483.549 100.109 489.947 101.769C492.611 102.42 495.027 103.832 496.898 105.832C498.677 109.188 500.12 112.71 501.207 116.347C502.478 120.337 503.894 125.682 505.399 132.367L261.275 134.318C258.733 121.386 256.908 110.245 263.757 104.813Z" fill="url(#paint11_linear_66_214)"/>
<path d="M497.906 347.978C497.906 347.978 511.299 344.73 517.419 323.016C524.195 310.739 526.707 331.303 526.182 346.988C525.787 358.478 505.355 358.973 499.191 357.75C493.028 356.527 490.823 351.327 497.906 347.978Z" fill="#3F3D56"/>
<path d="M494.372 350.614L494.562 350.381C495.423 349.418 496.498 348.67 497.702 348.196C501.574 346.955 505.013 344.641 507.619 341.526C511.855 336.809 514.979 331.206 516.761 325.128C521.742 319.841 523.597 335.322 523.173 347.424C522.822 357.109 504.435 357.531 498.885 356.497C494.766 355.667 492.619 353.06 494.372 350.614Z" fill="#3F3D56"/>
<path d="M512.891 334.113C514.498 331.244 515.796 328.212 516.761 325.07C520.442 321.152 522.414 328.638 523.027 337.696C521.216 335.147 516.572 334.245 512.891 334.113Z" fill="#00A2FE"/>
<path d="M460.035 93.0601C460.035 93.0601 270.169 93.0601 240.959 97.8515C224.893 101.769 81.9241 186.222 81.9241 186.222L89.0076 174.397C89.0076 174.397 194.997 96.031 232.532 81.1909C270.067 66.3508 452.47 56.4186 460.035 93.0601Z" fill="#00A2FE"/>
<path style="mix-blend-mode:multiply" opacity="0.5" d="M460.035 93.0601C460.035 93.0601 270.169 93.0601 240.959 97.8515C224.893 101.769 81.9241 186.222 81.9241 186.222L89.0076 174.397C89.0076 174.397 194.997 96.031 232.532 81.1909C270.067 66.3508 452.47 56.4186 460.035 93.0601Z" fill="url(#paint12_linear_66_214)"/>
<path d="M66.3259 321.604C66.472 310.623 68.2392 240.66 68.8964 221.83C69.5536 202.999 68.8234 194.844 73.8183 191.698C78.8133 188.552 167.539 126.556 205.731 108.512C243.924 90.4678 245.706 95.5941 252.161 116.012C258.616 136.43 265.861 224.757 268.051 277.156C270.096 326.337 269.512 402.081 269.512 402.081L229.757 389.717C229.961 385.26 230.02 380.6 229.917 375.808C229.216 342.648 221.242 315.574 212.085 315.327C202.927 315.079 196.019 341.788 196.793 374.949C196.793 376.406 196.881 377.964 196.939 379.449C169.949 371.003 140.213 361.609 116.202 353.905C116.29 351.371 116.319 348.735 116.202 346.026C115.779 325.419 110.813 308.598 105.132 308.453C99.4503 308.307 95.1856 324.88 95.6237 345.487C95.6237 346.085 95.6237 346.682 95.6237 347.279L92.9364 346.405C92.9364 344.628 92.9364 342.808 92.9364 340.944C92.542 322.608 88.1313 307.637 83.078 307.448C78.0246 307.259 74.3149 322.011 74.6216 340.157C72.7974 339.599 71.0238 338.888 69.32 338.031C65.8147 334.958 66.2529 332.599 66.3259 321.604Z" fill="#00A2FE"/>
<path d="M66.3259 321.604C66.472 310.623 68.2392 240.66 68.8964 221.83C69.5536 202.999 68.8234 194.844 73.8183 191.698C78.8133 188.552 167.539 126.556 205.731 108.512C243.924 90.4678 245.706 95.5941 252.161 116.012C258.616 136.43 265.861 224.757 268.051 277.156C270.096 326.337 269.512 402.081 269.512 402.081L229.757 389.717C229.961 385.26 230.02 380.6 229.917 375.808C229.216 342.648 221.242 315.574 212.085 315.327C202.927 315.079 196.019 341.788 196.793 374.949C196.793 376.406 196.881 377.964 196.939 379.449C169.949 371.003 140.213 361.609 116.202 353.905C116.29 351.371 116.319 348.735 116.202 346.026C115.779 325.419 110.813 308.598 105.132 308.453C99.4503 308.307 95.1856 324.88 95.6237 345.487C95.6237 346.085 95.6237 346.682 95.6237 347.279L92.9364 346.405C92.9364 344.628 92.9364 342.808 92.9364 340.944C92.542 322.608 88.1313 307.637 83.078 307.448C78.0246 307.259 74.3149 322.011 74.6216 340.157C72.7974 339.599 71.0238 338.888 69.32 338.031C65.8147 334.958 66.2529 332.599 66.3259 321.604Z" fill="url(#paint13_linear_66_214)"/>
<path d="M246.962 268.272C240.024 231.31 231.699 202.737 192.923 209.873C166.853 214.708 100.998 239.422 70.8973 251.204C70.8973 251.204 70.8973 242.932 71.058 240.573C71.8759 224.058 71.2624 215.626 76.3158 213.208C81.3692 210.791 168.489 153.294 207.061 140.668C245.633 128.041 247.239 133.386 253.242 154.722C257.623 170.159 261.596 221.291 263.874 268.316L247.02 268.607C247.008 268.495 246.988 268.383 246.962 268.272Z" fill="url(#paint14_linear_66_214)"/>
<path d="M254.498 268.491L247.02 268.607C247.027 268.496 247.027 268.384 247.02 268.272C245.533 259.611 243.583 251.036 241.178 242.582C247.254 249.049 251.329 258.02 254.498 268.491Z" fill="url(#paint15_linear_66_214)"/>
<g style="mix-blend-mode:multiply">
<path d="M171.41 156.848L172.271 156.411L173.98 214.664L173.118 214.912L171.41 156.848Z" fill="#CDCDCD"/>
<path d="M128.266 181.329L129.128 180.805L129.843 229.242L128.982 229.548L128.266 181.329Z" fill="#CDCDCD"/>
<path d="M94.762 201.834L95.6237 201.295V241.752L94.762 242.073V201.834Z" fill="#CDCDCD"/>
</g>
<path d="M525.758 361.507C525.758 361.507 524.78 364.274 510.16 364.551C495.54 364.828 274.711 368.148 267.263 363.968C267.16 377.978 266.036 402.066 269.57 403.712C273.952 405.765 499.002 402.532 509.4 401.134C519.799 399.736 523.699 398.09 524.999 388.391C526.299 378.692 525.758 361.507 525.758 361.507Z" fill="#00A2FE"/>
<path d="M525.758 361.507C525.758 361.507 524.78 364.274 510.16 364.551C495.54 364.828 274.711 368.148 267.263 363.968C267.16 377.978 266.036 402.066 269.57 403.712C273.952 405.765 499.002 402.532 509.4 401.134C519.799 399.736 523.699 398.09 524.999 388.391C526.299 378.692 525.758 361.507 525.758 361.507Z" fill="url(#paint16_linear_66_214)"/>
<g style="mix-blend-mode:multiply">
<path d="M230.253 267.559L225.448 135.236L226.31 135.032L235.073 372.838L265.174 381.576C265.729 329.599 263.714 281.86 263.086 268.272H263.962C264.692 283.943 267.102 342.036 265.715 400.799L264.853 400.508C264.989 394.896 265.087 389.309 265.145 383.746L235.161 375.007L235.76 391.537L234.883 391.202L234.211 374.833H234.124V373.726L230.326 269.802L189.067 273.442L190.776 377.585L189.9 377.25L188.191 273.515L152.803 276.646L154.263 366.124L153.401 365.818L151.941 276.719L120.116 279.53L121.343 355.638L120.467 355.289L119.255 279.559L67.2022 284.161V281.947L230.253 267.559Z" fill="#CDCDCD"/>
</g>
<path opacity="0.6" d="M257.317 268.433C257.317 267.821 257.2 267.209 257.156 266.598L254.147 218.83C253.519 208.839 255.71 200.509 259.23 198.353C261.099 219.223 262.706 244.301 263.874 268.258L257.317 268.433Z" fill="#191919"/>
<path d="M518.426 296.38C513.87 298.593 295.48 300.53 285.096 293.045C275.237 285.952 274.434 279.341 272.798 255.966C278.479 252.253 289.55 249.486 303.995 247.461C307.412 246.981 311.02 246.544 314.788 246.151C321.623 245.437 328.998 244.84 336.695 244.374L341.15 244.112C346.729 243.801 352.459 243.549 358.34 243.354L364.635 243.165C370.345 243.019 376.173 242.903 382.015 242.83C385.111 242.83 388.237 242.757 391.348 242.743H395.802C411.868 242.743 427.933 242.947 442.918 243.34C484.849 244.476 518.237 246.922 520.004 248.452C520.267 251.976 520.53 255.544 520.778 259.228C521.167 265.258 521.528 271.491 521.859 277.928C522.005 283.637 521.771 294.719 518.426 296.38Z" fill="url(#paint17_linear_66_214)"/>
<path d="M467.893 244.49C448.643 243.981 427.597 243.733 406.99 243.981L405.383 210.587C405.383 199.286 419.112 190.198 435.937 190.373C452.762 190.547 466.388 199.781 466.33 211.096L467.893 244.49Z" fill="url(#paint18_linear_66_214)"/>
<path d="M364.679 243.15C342.026 243.777 320.747 245.102 303.995 247.52L302.125 208.81C302.125 197.509 315.854 188.421 332.693 188.581C349.533 188.742 363.131 198.004 363.087 209.32L364.679 243.15Z" fill="url(#paint19_linear_66_214)"/>
<path d="M388.339 229.985C387.842 230.848 387.093 231.539 386.192 231.966C380.963 235.068 375.589 237.922 370.126 240.485C369.212 241.006 368.184 241.296 367.132 241.33C365.55 241.055 364.12 240.223 363.101 238.985C359.727 235.781 356.266 232.417 354.572 228.063C353.543 224.926 353.006 221.649 352.98 218.349C352.631 213.572 352.66 208.776 353.068 204.004C353.608 199.635 354.893 196.533 357.697 198.819C358.866 199.766 367.921 226.126 368.914 225.412L375.209 221.174C376.638 220.001 378.379 219.268 380.218 219.063C383.753 219.063 386.06 222.616 387.667 225.762C388.08 226.375 388.354 227.07 388.47 227.8C388.586 228.529 388.541 229.275 388.339 229.985Z" fill="#00A2FE"/>
<path d="M386.192 231.966C380.963 235.068 375.589 237.922 370.126 240.485C369.212 241.006 368.184 241.296 367.132 241.33C365.55 241.055 364.12 240.223 363.101 238.985C359.727 235.781 356.266 232.417 354.572 228.063C353.543 224.926 353.006 221.649 352.98 218.349C352.631 213.573 352.66 208.776 353.068 204.004C353.769 203.305 354.82 212.961 355.989 213.951C357.157 214.941 366.022 231.602 367.118 230.844C369.206 229.388 371.309 228.005 373.412 226.606C374.842 225.433 376.582 224.7 378.422 224.495C381.956 224.495 384.264 228.048 385.856 231.194C385.958 231.471 386.104 231.718 386.192 231.966Z" fill="url(#paint20_linear_66_214)"/>
<path d="M358.355 243.34C352.513 243.544 346.783 243.796 341.164 244.097L336.71 244.359C328.969 244.825 321.594 245.422 314.802 246.136C314.802 244.374 314.598 232.505 314.685 230.83C315.138 222.645 309.048 208.562 310.523 200.494C311.253 196.46 344.421 187.591 353.52 194.188C355.3 195.329 356.73 196.937 357.654 198.834C358.314 200.909 358.459 203.113 358.077 205.257C357.464 211.533 356.865 217.781 356.266 224.058C356.105 225.558 357.654 235.883 358.355 243.34Z" fill="#00A2FE"/>
<path d="M358.355 243.34C352.513 243.544 346.783 243.796 341.164 244.097L338.536 244.243L336.71 244.359C328.969 244.825 321.594 245.422 314.802 246.136C314.802 244.374 314.598 232.505 314.685 230.83C314.701 227.888 314.362 224.954 313.678 222.092C312.13 214.664 309.501 206.159 310.523 200.553C311.253 196.518 344.421 187.649 353.52 194.247C355.3 195.388 356.73 196.995 357.654 198.892C358.314 200.967 358.459 203.171 358.077 205.315C357.464 211.592 356.865 217.839 356.266 224.116C356.105 225.558 357.654 235.883 358.355 243.34Z" fill="url(#paint21_linear_66_214)"/>
<path d="M338.565 244.243L336.739 244.359C328.998 244.825 321.623 245.422 314.831 246.136C314.831 244.374 314.627 232.505 314.715 230.83C314.73 227.888 314.392 224.954 313.707 222.092C314.189 221.029 314.685 219.966 315.167 218.917C315.592 217.592 316.218 216.34 317.022 215.203C318.483 215.931 317.519 219.791 317.84 221.305C318.103 222.514 321.039 231.908 322.879 234.718C323.231 235.345 323.733 235.875 324.339 236.262C325.257 236.663 326.265 236.814 327.26 236.699C331.642 236.553 336.023 236.379 340.317 236.131C340.624 238.854 338.901 241.461 338.565 244.243Z" fill="url(#paint22_linear_66_214)"/>
<path d="M334.373 237.573C332.314 238.781 334.797 242.248 332.401 242.291C328.297 242.291 315.693 241.039 311.589 241.112C307.208 241.112 302.826 238.199 300.08 234.777C299.285 233.692 298.719 232.458 298.415 231.149C298.111 229.84 298.076 228.483 298.313 227.16C298.802 224.52 299.647 221.958 300.825 219.543C302.213 216.368 308.595 198.397 312.188 199.81C313.648 200.407 314.89 202.417 315.766 204.994C317.374 210.018 317.999 215.304 317.606 220.563C317.285 222.15 313.459 224.932 314.685 226.111C315.065 226.423 315.495 226.67 315.956 226.839C321.652 229.309 327.77 230.668 333.979 230.844C335.133 232.869 336.447 236.364 334.373 237.573Z" fill="#00A2FE"/>
<path d="M332.401 242.291C328.297 242.291 315.693 241.039 311.589 241.112C307.208 241.112 302.826 238.199 300.08 234.777C299.285 233.692 298.719 232.458 298.415 231.149C298.111 229.84 298.076 228.483 298.313 227.16C298.749 228.7 299.532 230.12 300.603 231.311C301.674 232.503 303.004 233.434 304.491 234.034C310.012 236 330.78 237.136 330.78 237.136L334.329 237.573C332.314 238.781 334.797 242.248 332.401 242.291Z" fill="url(#paint23_linear_66_214)"/>
<path d="M330.882 238.126C331.096 239.436 331.714 240.648 332.65 241.592C332.929 241.278 333.107 240.887 333.161 240.471C333.402 239.611 333.455 238.71 333.316 237.828C333.178 236.946 332.851 236.104 332.358 235.359C330.605 233.073 330.678 237.005 330.882 238.126Z" fill="#191919"/>
<path d="M329.247 189.47C329.101 192.281 329.247 195.295 331.087 197.494C332.137 198.613 333.418 199.493 334.84 200.072C336.157 200.763 337.618 201.137 339.105 201.164C339.847 201.164 340.575 200.96 341.209 200.574C341.843 200.189 342.358 199.637 342.698 198.98C343.568 196.768 343.835 194.366 343.472 192.018C342.625 189.324 342.494 186.368 341.106 183.892C339.719 181.416 334.782 180.979 331.627 181.183C330.167 181.285 329.48 181.751 329.32 183.178C329.144 185.188 329.364 187.431 329.247 189.47Z" fill="url(#paint24_linear_66_214)"/>
<path d="M334.461 193.416C335.334 195.447 336.813 197.161 338.696 198.324C339.399 198.764 340.204 199.014 341.033 199.053C341.449 199.069 341.863 198.99 342.243 198.82C342.623 198.651 342.959 198.397 343.224 198.077C343.694 197.272 343.893 196.338 343.793 195.412V188.713C343.827 188.244 343.747 187.774 343.56 187.344C343.339 187.026 343.053 186.759 342.721 186.56C342.388 186.362 342.017 186.237 341.632 186.193C339.558 185.683 335.585 184.737 333.847 186.513C332.109 188.29 333.643 191.611 334.461 193.416Z" fill="url(#paint25_linear_66_214)"/>
<path d="M353.477 183.95C353.257 187.344 352.425 191.232 349.446 192.819C348.282 193.388 347.015 193.715 345.721 193.781C342.548 194.19 339.323 193.716 336.403 192.412C333.202 190.666 330.746 187.819 329.495 184.402C328.277 181.006 327.683 177.42 327.742 173.814C327.742 168.673 328.765 162.717 333.248 160.197C335.034 159.291 337 158.793 339.003 158.741C343.516 158.464 353.783 158.115 353.199 164.479C352.615 170.843 353.973 177.368 353.477 183.95Z" fill="url(#paint26_linear_66_214)"/>
<path d="M353.973 156.76C353.543 155.537 352.851 154.421 351.946 153.491C351.041 152.56 349.943 151.837 348.73 151.372C346.543 150.704 344.244 150.476 341.968 150.702C339.616 150.804 337.265 150.921 334.913 151.066C332.275 151.069 329.664 151.594 327.231 152.61C326.004 153.144 325.006 154.093 324.412 155.29C324.129 156.246 323.904 157.219 323.741 158.202C323.39 159.455 322.631 160.561 322.28 161.785C321.769 164.217 321.967 166.743 322.85 169.066C323.872 172.707 325.055 176.596 328.049 178.897C327.407 176.923 327.489 174.786 328.283 172.868C328.932 173.363 329.473 173.985 329.872 174.697C330.271 175.408 330.521 176.193 330.605 177.004C331.335 177.004 331.467 175.94 331.394 175.212C331.047 173.158 330.895 171.076 330.941 168.994C330.972 167.949 331.228 166.923 331.691 165.986C332.155 165.048 332.816 164.222 333.628 163.562C336.272 161.668 339.894 162.6 343.092 163.168C345.575 163.62 350.19 164.625 352.615 163.634C355.039 162.644 354.718 158.858 353.973 156.76Z" fill="#3F3D56"/>
<path d="M395.846 242.714H391.391C390.267 231.165 379.459 222.092 366.344 222.092C352.702 222.092 341.515 231.908 341.194 244.083C339.733 244.17 338.273 244.243 336.739 244.345C336.958 229.607 350.147 217.665 366.344 217.665C381.927 217.737 394.736 228.733 395.846 242.714Z" fill="#191919"/>
<g opacity="0.5">
<mask id="mask0_66_214" style="mask-type:luminance" maskUnits="userSpaceOnUse" x="70" y="133" width="194" height="136">
<path d="M246.962 268.272C240.024 231.31 231.699 202.737 192.923 209.873C166.853 214.708 100.998 239.422 70.8973 251.204C70.8973 251.204 70.8973 242.932 71.058 240.573C71.8759 224.058 71.2624 215.626 76.3158 213.208C81.3692 210.791 168.489 153.294 207.061 140.668C245.633 128.041 247.239 133.386 253.242 154.722C257.623 170.159 261.596 221.291 263.874 268.316L247.02 268.607C247.008 268.495 246.988 268.383 246.962 268.272Z" fill="white"/>
</mask>
<g mask="url(#mask0_66_214)">
<path d="M263.933 231.209C265.7 239.146 275.076 245.262 284.876 244.869C294.676 244.461 301.19 237.704 299.482 229.767L292.179 197.101C290.412 189.164 281.035 183.047 271.235 183.455C261.435 183.848 254.921 190.606 256.63 198.543L263.933 231.209Z" fill="#191919"/>
<path d="M225.843 232.752C227.61 240.689 246.786 278.481 256.601 278.074L263.904 275.059C273.704 274.651 272.944 270.923 271.206 262.986L254.118 198.659C252.351 190.708 242.974 184.591 233.174 184.999C223.36 185.392 216.861 192.149 218.569 200.087L225.843 232.752Z" fill="#191919"/>
<path d="M200.97 236.67C202.825 243.587 208.273 248.32 213.224 247.345C218.131 246.34 220.599 239.917 218.745 233L211.092 204.63C209.237 197.713 203.789 192.98 198.838 193.941C193.931 194.96 191.462 201.383 193.317 208.3L200.97 236.67Z" fill="#191919"/>
<path d="M181.881 240.616C183.751 247.52 189.184 252.267 194.135 251.291C199.042 250.287 201.525 243.85 199.656 236.946L192.017 208.504C190.162 201.587 184.715 196.853 179.749 197.815C174.842 198.834 172.446 205.257 174.228 212.174L181.881 240.616Z" fill="#191919"/>
<path d="M162.982 242.743C164.604 248.787 169.409 252.937 173.703 252.092C177.996 251.204 180.158 245.568 178.537 239.524L171.848 214.621C170.212 208.562 165.407 204.426 161.113 205.271C156.819 206.159 154.643 211.781 156.279 217.839L162.982 242.743Z" fill="#191919"/>
<path d="M146.055 247.578C147.691 253.636 152.481 257.772 156.775 256.927C161.157 256.039 163.245 250.418 161.609 244.359L154.92 219.456C153.299 213.412 148.494 209.261 144.186 210.106C139.892 210.995 137.73 216.616 139.351 222.674L146.055 247.578Z" fill="#191919"/>
<path d="M130.895 255.398C132.56 261.617 137.496 265.928 141.922 265.01C146.303 264.093 148.567 258.311 146.888 252.092L140.009 226.475C138.329 220.242 133.392 215.946 128.967 216.864C124.586 217.766 122.322 223.563 124.001 229.781L130.895 255.398Z" fill="#191919"/>
<path d="M113.281 261.311C114.961 267.53 119.897 271.826 124.323 270.923C128.704 270.005 130.953 264.224 129.288 258.005L122.395 232.388C120.73 226.17 115.779 221.873 111.368 222.776C106.986 223.694 104.723 229.475 106.388 235.694L113.281 261.311Z" fill="#191919"/>
<path d="M97.2303 264.69C98.6908 269.991 102.839 273.632 106.592 272.86C110.36 272.088 112.244 267.18 110.813 261.894L104.971 240.136C103.51 234.849 99.348 231.194 95.5945 231.966C91.841 232.738 89.9569 237.646 91.3736 242.947L97.2303 264.69Z" fill="#191919"/>
<path d="M79.8356 267.573C80.5951 272.991 84.334 277.127 88.1459 276.806C91.9578 276.486 94.4407 271.84 93.6666 266.408L90.4827 244.112C89.7087 238.694 85.9844 234.558 82.1578 234.878C78.3459 235.199 75.8776 239.859 76.6371 245.277L79.8356 267.573Z" fill="#191919"/>
</g>
</g>
<path d="M331.029 348.196C331.029 348.196 306.2 342.924 289.857 328.798C276.975 317.701 269.921 336.298 273.163 350.41C276.406 364.522 312.685 361.23 324.398 360.109C336.111 358.988 337.908 350.046 331.029 348.196Z" fill="#3F3D56"/>
<path d="M328.341 348.24C328.341 348.24 305.104 343.725 289.725 331.638C277.647 322.142 271.016 338.06 274.069 350.133C277.121 362.206 311.136 359.381 322.119 358.434C333.102 357.488 334.797 349.813 328.341 348.24Z" fill="#3F3D56"/>
<path d="M274.317 350.847C274.219 350.615 274.136 350.376 274.069 350.133C271.016 338.06 277.647 322.142 289.725 331.638C291.054 332.672 292.427 333.662 293.859 334.55C284.088 336.837 276.975 342.546 274.317 350.847Z" fill="#00A2FE"/>
<path d="M286.191 348.473C286.191 353.264 289.55 357.211 293.683 357.211C297.817 357.211 301.176 353.323 301.176 348.473C301.176 343.623 297.817 339.735 293.683 339.735C289.55 339.735 286.191 343.682 286.191 348.473Z" fill="#00A2FE"/>
<path d="M306.872 351.313C306.872 354.939 309.413 357.866 312.538 357.866C315.664 357.866 318.191 354.954 318.191 351.313C318.191 347.672 315.664 344.759 312.538 344.759C309.413 344.759 306.872 347.687 306.872 351.313Z" fill="#00A2FE"/>
<path d="M523.231 345.167C523.231 348.924 520.617 351.968 517.389 351.968C514.162 351.968 511.547 348.924 511.547 345.167C511.547 341.41 514.162 338.351 517.389 338.351C520.617 338.351 523.231 341.41 523.231 345.167Z" fill="#00A2FE"/>
<path d="M511.547 349.871C511.413 350.71 511.041 351.493 510.474 352.127C509.908 352.761 509.17 353.22 508.35 353.449C507.53 353.678 506.661 353.668 505.846 353.42C505.032 353.172 504.306 352.696 503.754 352.048C503.202 351.401 502.848 350.61 502.734 349.768C502.62 348.926 502.75 348.07 503.109 347.299C503.468 346.529 504.041 345.878 504.76 345.422C505.479 344.967 506.314 344.727 507.166 344.73C508.426 344.845 509.59 345.448 510.409 346.409C511.228 347.37 511.637 348.613 511.547 349.871Z" fill="#00A2FE"/>
<path d="M512.891 334.113C514.498 331.244 515.796 328.212 516.761 325.07C520.442 321.152 522.414 328.638 523.027 337.696C521.216 335.147 516.572 334.245 512.891 334.113Z" fill="url(#paint27_linear_66_214)"/>
<path d="M274.317 350.847C274.219 350.615 274.136 350.376 274.069 350.133C271.016 338.06 277.647 322.142 289.725 331.638C291.054 332.672 292.427 333.662 293.859 334.55C284.088 336.837 276.975 342.546 274.317 350.847Z" fill="url(#paint28_linear_66_214)"/>
<path d="M286.191 348.473C286.191 353.264 289.55 357.211 293.683 357.211C297.817 357.211 301.176 353.323 301.176 348.473C301.176 343.623 297.817 339.735 293.683 339.735C289.55 339.735 286.191 343.682 286.191 348.473Z" fill="url(#paint29_linear_66_214)"/>
<path d="M306.872 351.313C306.872 354.939 309.413 357.866 312.538 357.866C315.664 357.866 318.191 354.954 318.191 351.313C318.191 347.672 315.664 344.759 312.538 344.759C309.413 344.759 306.872 347.687 306.872 351.313Z" fill="url(#paint30_linear_66_214)"/>
<path d="M523.231 345.167C523.231 348.924 520.617 351.968 517.389 351.968C514.162 351.968 511.547 348.924 511.547 345.167C511.547 341.41 514.162 338.351 517.389 338.351C520.617 338.351 523.231 341.41 523.231 345.167Z" fill="url(#paint31_linear_66_214)"/>
<path d="M511.547 349.871C511.413 350.71 511.041 351.493 510.474 352.127C509.908 352.761 509.17 353.22 508.35 353.449C507.53 353.678 506.661 353.668 505.846 353.42C505.032 353.172 504.306 352.696 503.754 352.048C503.202 351.401 502.848 350.61 502.734 349.768C502.62 348.926 502.75 348.07 503.109 347.299C503.468 346.529 504.041 345.878 504.76 345.422C505.479 344.967 506.314 344.727 507.166 344.73C508.426 344.845 509.59 345.448 510.409 346.409C511.228 347.37 511.637 348.613 511.547 349.871Z" fill="url(#paint32_linear_66_214)"/>
<path d="M243.252 299.438C243.252 299.904 243.091 300.268 242.901 300.239L237.95 299.627C237.76 299.627 237.614 299.205 237.614 298.739V296.758C237.614 296.292 237.76 295.943 237.95 295.972L242.916 296.584C243.106 296.584 243.252 296.991 243.252 297.457V299.438Z" fill="url(#paint33_linear_66_214)"/>
<path d="M170.606 355.201C170.606 355.551 170.489 355.813 170.343 355.798L166.663 355.347C166.517 355.347 166.415 355.027 166.415 354.692V353.235C166.415 352.886 166.531 352.624 166.663 352.638L170.358 353.104C170.489 353.104 170.606 353.41 170.606 353.759V355.201Z" fill="url(#paint34_linear_66_214)"/>
<path d="M136.445 348.619C136.445 348.895 136.357 349.114 136.24 349.099L133.217 348.808C133.1 348.808 133.013 348.546 133.013 348.269V347.06C133.013 346.769 133.1 346.565 133.217 346.58L136.24 346.944C136.357 346.944 136.445 347.206 136.445 347.483V348.619Z" fill="url(#paint35_linear_66_214)"/>
<path opacity="0.18" d="M348.803 100.225L472.669 298.098L518.426 296.351L405.617 102.002L348.803 100.225Z" fill="#00A2FE"/>
<path opacity="0.18" d="M106.767 195.528L139.994 226.49L181.925 212.64L139.906 174.877L106.767 195.528Z" fill="#00A2FE"/>
<path d="M462.43 330.065H369.513V358.391H462.43V330.065Z" fill="url(#paint36_linear_66_214)"/>
<path d="M285.329 311.569C285.063 309.93 285.142 308.254 285.563 306.647C292.267 325.914 345.546 341.191 407.53 341.191C466.432 341.191 512.687 327.371 517.229 309.472C517.465 310.146 517.646 310.837 517.769 311.54C521.26 331.754 472.041 348.167 407.866 348.167C343.691 348.167 288.834 331.798 285.329 311.569Z" fill="url(#paint37_linear_66_214)"/>
<path d="M378.115 218.757C377.462 219.129 376.886 219.623 376.421 220.213C375.952 221.111 375.721 222.114 375.749 223.126C375.621 223.851 375.75 224.597 376.114 225.238C376.567 225.82 377.663 225.893 377.925 225.238C377.957 225.627 378.076 226.004 378.274 226.342C378.471 226.679 378.741 226.969 379.065 227.189C379.395 227.397 379.79 227.48 380.176 227.421C380.563 227.362 380.915 227.166 381.168 226.869C381.014 227.615 381.122 228.391 381.474 229.068C381.913 229.694 383.037 229.825 383.359 229.141C383.505 229.927 383.797 230.874 384.571 231.063C384.846 231.105 385.127 231.071 385.384 230.966C385.641 230.861 385.865 230.688 386.031 230.466C386.36 230.014 386.634 229.525 386.849 229.009C386.919 228.86 387.024 228.73 387.156 228.631C387.337 228.58 387.529 228.58 387.711 228.631C388.128 228.675 388.549 228.675 388.967 228.631C389.171 228.623 389.367 228.546 389.522 228.412C389.601 228.28 389.646 228.13 389.653 227.975C389.814 225.835 388.193 224.072 387.039 222.15C386.189 220.62 384.91 219.37 383.359 218.553C382.65 218.039 381.829 217.699 380.963 217.563C379.918 217.679 378.93 218.094 378.115 218.757Z" fill="url(#paint38_linear_66_214)"/>
<path d="M334.519 230.844C333.635 231.235 332.849 231.816 332.217 232.547C331.586 233.277 331.125 234.138 330.868 235.068C330.654 236.012 330.825 237.002 331.342 237.821C331.86 238.641 332.682 239.221 333.628 239.437C334.541 239.44 335.448 239.297 336.316 239.014C338.273 238.592 340.449 238.796 342.158 237.718L342.698 238.49C343.171 238.553 343.652 238.479 344.084 238.278C344.516 238.077 344.882 237.756 345.137 237.354C345.707 236.597 346.028 235.665 346.598 234.878C347.167 234.092 347.941 233.291 348.438 232.374C348.696 231.891 348.854 231.361 348.905 230.817C348.956 230.272 348.897 229.723 348.733 229.201C348.568 228.679 348.301 228.195 347.947 227.777C347.593 227.359 347.159 227.016 346.671 226.767C346.072 226.534 345.433 226.424 344.791 226.441C344.149 226.459 343.517 226.604 342.932 226.869C341.573 227.422 340.58 228.529 339.295 229.126C337.761 229.84 336.038 230.014 334.519 230.844Z" fill="url(#paint39_linear_66_214)"/>
<path d="M317.606 220.563C317.285 222.15 313.459 224.932 314.685 226.111C313.857 225.911 313.082 225.532 312.416 225.001C311.75 224.47 311.209 223.8 310.83 223.038C310.012 221.349 311.487 218.83 313.561 214.708C314.894 211.579 315.599 208.219 315.635 204.82L315.81 204.994C317.403 210.021 318.013 215.306 317.606 220.563Z" fill="url(#paint40_linear_66_214)"/>
<path d="M321.944 195.528L326.983 211.169L335.118 210.718C335.118 210.718 329.451 191.975 329.276 189.47C329.101 186.965 321.506 189.324 321.944 195.528Z" fill="white"/>
<path d="M344.801 209.334C347.66 209.524 350.529 209.45 353.374 209.116C353.024 203.844 350.614 198.921 348.233 194.232C348.181 194.097 348.096 193.976 347.985 193.883C347.826 193.791 347.642 193.751 347.459 193.766H345.195C344.733 193.705 344.262 193.791 343.852 194.014C342.975 194.582 344.231 199.693 344.334 200.844C344.582 203.611 344.743 206.48 344.801 209.334Z" fill="white"/>
<defs>
<linearGradient id="paint0_linear_66_214" x1="362.02" y1="164.901" x2="210.106" y2="579.438" gradientUnits="userSpaceOnUse">
<stop offset="0.01"/>
<stop offset="0.83" stop-opacity="0.07"/>
<stop offset="1" stop-opacity="0"/>
</linearGradient>
<linearGradient id="paint1_linear_66_214" x1="108.462" y1="340.288" x2="80.3176" y2="340.288" gradientUnits="userSpaceOnUse">
<stop offset="0.01"/>
<stop offset="0.83" stop-opacity="0.07"/>
<stop offset="1" stop-opacity="0"/>
</linearGradient>
<linearGradient id="paint2_linear_66_214" x1="87.6493" y1="340.827" x2="77.4112" y2="340.827" gradientUnits="userSpaceOnUse">
<stop stop-color="white"/>
<stop offset="0.43" stop-color="#FDFDFD"/>
<stop offset="0.68" stop-color="#F5F5F5"/>
<stop offset="0.87" stop-color="#E7E7E8"/>
<stop offset="0.97" stop-color="#DDDEDF"/>
</linearGradient>
<linearGradient id="paint3_linear_66_214" x1="288.163" y1="361.405" x2="160.362" y2="384.543" gradientUnits="userSpaceOnUse">
<stop offset="0.01"/>
<stop offset="0.83" stop-opacity="0.07"/>
<stop offset="1" stop-opacity="0"/>
</linearGradient>
<linearGradient id="paint4_linear_66_214" x1="220.366" y1="372.372" x2="202.533" y2="372.372" gradientUnits="userSpaceOnUse">
<stop stop-color="white"/>
<stop offset="0.43" stop-color="#FDFDFD"/>
<stop offset="0.68" stop-color="#F5F5F5"/>
<stop offset="0.87" stop-color="#E7E7E8"/>
<stop offset="0.97" stop-color="#DDDEDF"/>
</linearGradient>
<linearGradient id="paint5_linear_66_214" x1="533.163" y1="361.405" x2="405.362" y2="384.543" gradientUnits="userSpaceOnUse">
<stop offset="0.01"/>
<stop offset="0.83" stop-opacity="0.07"/>
<stop offset="1" stop-opacity="0"/>
</linearGradient>
<linearGradient id="paint6_linear_66_214" x1="465.366" y1="372.372" x2="447.533" y2="372.372" gradientUnits="userSpaceOnUse">
<stop stop-color="white"/>
<stop offset="0.43" stop-color="#FDFDFD"/>
<stop offset="0.68" stop-color="#F5F5F5"/>
<stop offset="0.87" stop-color="#E7E7E8"/>
<stop offset="0.97" stop-color="#DDDEDF"/>
</linearGradient>
<linearGradient id="paint7_linear_66_214" x1="137.423" y1="344.716" x2="102.006" y2="344.716" gradientUnits="userSpaceOnUse">
<stop offset="0.01"/>
<stop offset="0.83" stop-opacity="0.07"/>
<stop offset="1" stop-opacity="0"/>
</linearGradient>
<linearGradient id="paint8_linear_66_214" x1="110.01" y1="345.298" x2="98.8222" y2="345.298" gradientUnits="userSpaceOnUse">
<stop stop-color="white"/>
<stop offset="0.43" stop-color="#FDFDFD"/>
<stop offset="0.68" stop-color="#F5F5F5"/>
<stop offset="0.87" stop-color="#E7E7E8"/>
<stop offset="0.97" stop-color="#DDDEDF"/>
</linearGradient>
<linearGradient id="paint9_linear_66_214" x1="191.418" y1="167.217" x2="654.147" y2="239.607" gradientUnits="userSpaceOnUse">
<stop offset="0.01"/>
<stop offset="0.83" stop-opacity="0.07"/>
<stop offset="1" stop-opacity="0"/>
</linearGradient>
<linearGradient id="paint10_linear_66_214" x1="376.304" y1="69.249" x2="398.379" y2="268.417" gradientUnits="userSpaceOnUse">
<stop offset="0.01"/>
<stop offset="0.83" stop-opacity="0.07"/>
<stop offset="1" stop-opacity="0"/>
</linearGradient>
<linearGradient id="paint11_linear_66_214" x1="389.945" y1="161.071" x2="371.032" y2="81.0648" gradientUnits="userSpaceOnUse">
<stop offset="0.01"/>
<stop offset="0.83" stop-opacity="0.07"/>
<stop offset="1" stop-opacity="0"/>
</linearGradient>
<linearGradient id="paint12_linear_66_214" x1="213.019" y1="123.337" x2="376.34" y2="149.156" gradientUnits="userSpaceOnUse">
<stop stop-color="#2B2B2B"/>
<stop offset="0.22" stop-color="#2E2E2E"/>
<stop offset="0.41" stop-color="#383939"/>
<stop offset="0.6" stop-color="#494A4B"/>
<stop offset="0.77" stop-color="#616264"/>
<stop offset="0.94" stop-color="#7F8184"/>
<stop offset="1" stop-color="#8D8F92"/>
</linearGradient>
<linearGradient id="paint13_linear_66_214" x1="152.029" y1="426.052" x2="184.692" y2="193.231" gradientUnits="userSpaceOnUse">
<stop offset="0.01"/>
<stop offset="0.83" stop-opacity="0.07"/>
<stop offset="1" stop-opacity="0"/>
</linearGradient>
<linearGradient id="paint14_linear_66_214" x1="145.778" y1="111.891" x2="184.616" y2="327.905" gradientUnits="userSpaceOnUse">
<stop offset="0.01"/>
<stop offset="0.83" stop-opacity="0.07"/>
<stop offset="1" stop-opacity="0"/>
</linearGradient>
<linearGradient id="paint15_linear_66_214" x1="236.607" y1="176.203" x2="232.104" y2="144.116" gradientUnits="userSpaceOnUse">
<stop stop-color="white" stop-opacity="0"/>
<stop offset="0.12" stop-color="white" stop-opacity="0.04"/>
<stop offset="0.33" stop-color="white" stop-opacity="0.14"/>
<stop offset="0.59" stop-color="white" stop-opacity="0.3"/>
<stop offset="0.89" stop-color="white" stop-opacity="0.52"/>
<stop offset="1" stop-color="white" stop-opacity="0.6"/>
</linearGradient>
<linearGradient id="paint16_linear_66_214" x1="410.685" y1="458.485" x2="377.133" y2="269.026" gradientUnits="userSpaceOnUse">
<stop offset="0.01"/>
<stop offset="0.83" stop-opacity="0.07"/>
<stop offset="1" stop-opacity="0"/>
</linearGradient>
<linearGradient id="paint17_linear_66_214" x1="272.798" y1="270.53" x2="521.917" y2="270.53" gradientUnits="userSpaceOnUse">
<stop offset="0.01"/>
<stop offset="0.83" stop-opacity="0.07"/>
<stop offset="1" stop-opacity="0"/>
</linearGradient>
<linearGradient id="paint18_linear_66_214" x1="405.31" y1="217.432" x2="467.82" y2="217.432" gradientUnits="userSpaceOnUse">
<stop offset="0.01"/>
<stop offset="0.83" stop-opacity="0.07"/>
<stop offset="1" stop-opacity="0"/>
</linearGradient>
<linearGradient id="paint19_linear_66_214" x1="292.296" y1="191.567" x2="408.613" y2="285.126" gradientUnits="userSpaceOnUse">
<stop offset="0.01"/>
<stop offset="0.83" stop-opacity="0.07"/>
<stop offset="1" stop-opacity="0"/>
</linearGradient>
<linearGradient id="paint20_linear_66_214" x1="347.021" y1="234.456" x2="368.287" y2="218.859" gradientUnits="userSpaceOnUse">
<stop offset="0.01"/>
<stop offset="0.83" stop-opacity="0.07"/>
<stop offset="1" stop-opacity="0"/>
</linearGradient>
<linearGradient id="paint21_linear_66_214" x1="327.976" y1="261.253" x2="336.211" y2="210.9" gradientUnits="userSpaceOnUse">
<stop offset="0.01"/>
<stop offset="0.83" stop-opacity="0.07"/>
<stop offset="1" stop-opacity="0"/>
</linearGradient>
<linearGradient id="paint22_linear_66_214" x1="308.727" y1="257.233" x2="334.186" y2="220.174" gradientUnits="userSpaceOnUse">
<stop offset="0.01"/>
<stop offset="0.83" stop-opacity="0.07"/>
<stop offset="1" stop-opacity="0"/>
</linearGradient>
<linearGradient id="paint23_linear_66_214" x1="326.282" y1="270.369" x2="310.578" y2="212.909" gradientUnits="userSpaceOnUse">
<stop offset="0.01"/>
<stop offset="0.83" stop-opacity="0.07"/>
<stop offset="1" stop-opacity="0"/>
</linearGradient>
<linearGradient id="paint24_linear_66_214" x1="329.203" y1="191.145" x2="343.677" y2="191.145" gradientUnits="userSpaceOnUse">
<stop stop-color="#E5C5D5"/>
<stop offset="0.42" stop-color="#EAD4D1"/>
<stop offset="1" stop-color="#F0E9CB"/>
</linearGradient>
<linearGradient id="paint25_linear_66_214" x1="341.559" y1="175.154" x2="336.679" y2="202.072" gradientUnits="userSpaceOnUse">
<stop offset="0.01"/>
<stop offset="0.83" stop-opacity="0.07"/>
<stop offset="1" stop-opacity="0"/>
</linearGradient>
<linearGradient id="paint26_linear_66_214" x1="327.742" y1="176.261" x2="353.564" y2="176.261" gradientUnits="userSpaceOnUse">
<stop stop-color="#E5C5D5"/>
<stop offset="0.42" stop-color="#EAD4D1"/>
<stop offset="1" stop-color="#F0E9CB"/>
</linearGradient>
<linearGradient id="paint27_linear_66_214" x1="512.891" y1="330.851" x2="523.027" y2="330.851" gradientUnits="userSpaceOnUse">
<stop offset="0.02" stop-color="white" stop-opacity="0"/>
<stop offset="0.39" stop-color="white" stop-opacity="0.39"/>
<stop offset="1" stop-color="white"/>
</linearGradient>
<linearGradient id="paint28_linear_66_214" x1="273.324" y1="339.793" x2="293.859" y2="339.793" gradientUnits="userSpaceOnUse">
<stop offset="0.02" stop-color="white" stop-opacity="0"/>
<stop offset="0.39" stop-color="white" stop-opacity="0.39"/>
<stop offset="1" stop-color="white"/>
</linearGradient>
<linearGradient id="paint29_linear_66_214" x1="286.191" y1="348.473" x2="301.176" y2="348.473" gradientUnits="userSpaceOnUse">
<stop offset="0.02" stop-color="white" stop-opacity="0"/>
<stop offset="0.39" stop-color="white" stop-opacity="0.39"/>
<stop offset="1" stop-color="white"/>
</linearGradient>
<linearGradient id="paint30_linear_66_214" x1="306.872" y1="351.313" x2="318.191" y2="351.313" gradientUnits="userSpaceOnUse">
<stop offset="0.02" stop-color="white" stop-opacity="0"/>
<stop offset="0.39" stop-color="white" stop-opacity="0.39"/>
<stop offset="1" stop-color="white"/>
</linearGradient>
<linearGradient id="paint31_linear_66_214" x1="511.577" y1="345.167" x2="523.231" y2="345.167" gradientUnits="userSpaceOnUse">
<stop offset="0.02" stop-color="white" stop-opacity="0"/>
<stop offset="0.39" stop-color="white" stop-opacity="0.39"/>
<stop offset="1" stop-color="white"/>
</linearGradient>
<linearGradient id="paint32_linear_66_214" x1="502.741" y1="349.871" x2="511.547" y2="349.871" gradientUnits="userSpaceOnUse">
<stop offset="0.02" stop-color="white" stop-opacity="0"/>
<stop offset="0.39" stop-color="white" stop-opacity="0.39"/>
<stop offset="1" stop-color="white"/>
</linearGradient>
<linearGradient id="paint33_linear_66_214" x1="232.211" y1="293.347" x2="232.015" y2="297.364" gradientUnits="userSpaceOnUse">
<stop offset="0.01"/>
<stop offset="0.83" stop-opacity="0.07"/>
<stop offset="1" stop-opacity="0"/>
</linearGradient>
<linearGradient id="paint34_linear_66_214" x1="159.749" y1="349.707" x2="159.604" y2="352.684" gradientUnits="userSpaceOnUse">
<stop offset="0.01"/>
<stop offset="0.83" stop-opacity="0.07"/>
<stop offset="1" stop-opacity="0"/>
</linearGradient>
<linearGradient id="paint35_linear_66_214" x1="132.093" y1="286.622" x2="137.19" y2="405.432" gradientUnits="userSpaceOnUse">
<stop offset="0.01"/>
<stop offset="0.83" stop-opacity="0.07"/>
<stop offset="1" stop-opacity="0"/>
</linearGradient>
<linearGradient id="paint36_linear_66_214" x1="421.215" y1="452.456" x2="413.562" y2="293.713" gradientUnits="userSpaceOnUse">
<stop offset="0.01"/>
<stop offset="0.83" stop-opacity="0.07"/>
<stop offset="1" stop-opacity="0"/>
</linearGradient>
<linearGradient id="paint37_linear_66_214" x1="384.191" y1="268.797" x2="440.726" y2="408.761" gradientUnits="userSpaceOnUse">
<stop offset="0.01"/>
<stop offset="0.83" stop-opacity="0.07"/>
<stop offset="1" stop-opacity="0"/>
</linearGradient>
<linearGradient id="paint38_linear_66_214" x1="375.72" y1="224.32" x2="389.668" y2="224.32" gradientUnits="userSpaceOnUse">
<stop stop-color="#E5C5D5"/>
<stop offset="0.42" stop-color="#EAD4D1"/>
<stop offset="1" stop-color="#F0E9CB"/>
</linearGradient>
<linearGradient id="paint39_linear_66_214" x1="330.809" y1="232.898" x2="348.832" y2="232.898" gradientUnits="userSpaceOnUse">
<stop stop-color="#E5C5D5"/>
<stop offset="0.42" stop-color="#EAD4D1"/>
<stop offset="1" stop-color="#F0E9CB"/>
</linearGradient>
<linearGradient id="paint40_linear_66_214" x1="326.793" y1="223.534" x2="310.844" y2="212.773" gradientUnits="userSpaceOnUse">
<stop offset="0.01"/>
<stop offset="0.83" stop-opacity="0.07"/>
<stop offset="1" stop-opacity="0"/>
</linearGradient>
</defs>
</svg>
