<svg width="71" height="70" viewBox="0 0 71 70" fill="none" xmlns="http://www.w3.org/2000/svg">
<rect x="0.5" width="70" height="70" rx="20" fill="#00A2FE"/>
<g clip-path="url(#clip0_41_155)">
<g clip-path="url(#clip1_41_155)">
<path d="M44.3695 32.0959H39.2917V28.3542C39.2917 26.4235 39.4692 25.2075 42.5945 25.2075H44.4286C45.5951 25.2075 46.5417 24.3693 46.5417 23.3366V20.9906C46.5417 20.0122 45.6944 19.1759 44.5914 19.1104C43.315 19.0337 42.0366 18.9982 40.7561 19.0001C35.0232 19.0001 30.8393 22.1 30.8393 27.7911V32.0959H26.6131C25.4467 32.0959 24.5 32.934 24.5 33.9667V37.7083C24.5 38.741 25.4467 39.5792 26.6131 39.5792L30.8393 39.5773V54.5458C30.8393 55.5785 31.786 56.4166 32.9524 56.4166H37.1786C38.345 56.4166 39.2917 55.5785 39.2917 54.5458V39.5736L43.8856 39.5717C44.959 39.5717 45.8613 38.8589 45.9839 37.9141L46.4678 34.18C46.6136 33.0706 45.6331 32.0959 44.3695 32.0959Z" fill="white"/>
</g>
</g>
<defs>
<clipPath id="clip0_41_155">
<rect width="40" height="46" fill="white" transform="translate(15.5 12)"/>
</clipPath>
<clipPath id="clip1_41_155">
<rect width="41" height="43" fill="white" transform="translate(15.5 13)"/>
</clipPath>
</defs>
</svg>
