<svg width="71" height="70" viewBox="0 0 71 70" fill="none" xmlns="http://www.w3.org/2000/svg">
<rect x="0.5" width="70" height="70" rx="20" fill="#00A2FE"/>
<path d="M28.4265 16.9999C22.1807 16.9999 17.1001 21.9554 17.1001 28.0434V43.8155C17.1001 49.902 22.1854 54.853 28.4328 54.853H44.618C50.8638 54.853 55.9444 49.8974 55.9444 43.8094V28.0373C55.9444 21.9508 50.8591 16.9999 44.6117 16.9999H28.4265ZM47.8518 23.3087C48.7453 23.3087 49.4704 24.0153 49.4704 24.8859C49.4704 25.7566 48.7453 26.4631 47.8518 26.4631C46.9584 26.4631 46.2333 25.7566 46.2333 24.8859C46.2333 24.0153 46.9584 23.3087 47.8518 23.3087ZM36.5223 26.4631C41.8779 26.4631 46.2333 30.7074 46.2333 35.9264C46.2333 41.1454 41.8779 45.3897 36.5223 45.3897C31.1666 45.3897 26.8112 41.1454 26.8112 35.9264C26.8112 30.7074 31.1666 26.4631 36.5223 26.4631ZM36.5223 29.6176C32.9467 29.6176 30.0482 32.4421 30.0482 35.9264C30.0482 39.4107 32.9467 42.2353 36.5223 42.2353C40.0978 42.2353 42.9963 39.4107 42.9963 35.9264C42.9963 32.4421 40.0978 29.6176 36.5223 29.6176Z" fill="white"/>
</svg>
