<svg width="71" height="70" viewBox="0 0 71 70" fill="none" xmlns="http://www.w3.org/2000/svg">
<rect x="0.5" width="70" height="70" rx="20" fill="#00A2FE"/>
<path d="M52.4007 24.5174C51.1566 25.0699 49.8202 25.4417 48.4175 25.6094C49.8501 24.7514 50.9486 23.3929 51.466 21.7731C50.127 22.5674 48.6424 23.1446 47.0616 23.4566C45.7967 22.1085 43.9949 21.2661 42.0007 21.2661C38.1709 21.2661 35.0665 24.3718 35.0665 28.2003C35.0665 28.7437 35.1289 29.2741 35.2459 29.7798C29.483 29.4912 24.374 26.73 20.9524 22.5336C20.357 23.558 20.0151 24.7488 20.0151 26.0215C20.0151 28.4265 21.2384 30.5494 23.0987 31.7922C21.9625 31.7558 20.8926 31.4438 19.9579 30.9251C19.9579 30.955 19.9579 30.9823 19.9579 31.0122C19.9579 34.3727 22.3473 37.1755 25.5206 37.8112C24.9395 37.9698 24.3259 38.0543 23.6928 38.0543C23.2469 38.0543 22.8114 38.0101 22.3889 37.9308C23.2716 40.6855 25.8326 42.6914 28.8668 42.7473C26.4943 44.6076 23.5043 45.7165 20.2543 45.7165C19.6953 45.7165 19.1428 45.684 18.5994 45.619C21.6687 47.5859 25.3126 48.7338 29.2295 48.7338C41.9851 48.7338 48.9583 38.1674 48.9583 29.0037C48.9583 28.7034 48.9518 28.4044 48.9388 28.1067C50.2947 27.1278 51.4712 25.9071 52.4007 24.5174Z" fill="white"/>
</svg>
